<svg width="22" height="22" viewBox="0 0 22 22" fill="none" xmlns="http://www.w3.org/2000/svg">
<path d="M11 19.6668C13.2985 19.6667 15.5029 18.7537 17.1283 17.1283C18.7536 15.503 19.6667 13.2986 19.6667 11.0001C19.6667 8.70154 18.7536 6.49714 17.1283 4.87182C15.5029 3.24651 13.2985 2.33342 11 2.33342C8.70145 2.33342 6.49705 3.24651 4.87173 4.87182C3.24642 6.49714 2.33332 8.70154 2.33332 11.0001C2.33332 13.2986 3.24642 15.503 4.87173 17.1283C6.49705 18.7537 8.70145 19.6667 11 19.6668ZM11 21.8334C5.01674 21.8334 0.166656 16.9833 0.166656 11.0001C0.166656 5.01683 5.01674 0.166748 11 0.166748C16.9832 0.166748 21.8333 5.01683 21.8333 11.0001C21.8333 16.9833 16.9832 21.8334 11 21.8334ZM11 15.3334C12.1493 15.3334 13.2515 14.8769 14.0641 14.0642C14.8768 13.2516 15.3333 12.1494 15.3333 11.0001C15.3333 9.85081 14.8768 8.74861 14.0641 7.93595C13.2515 7.1233 12.1493 6.66675 11 6.66675C9.85072 6.66675 8.74852 7.1233 7.93586 7.93595C7.1232 8.74861 6.66666 9.85081 6.66666 11.0001C6.66666 12.1494 7.1232 13.2516 7.93586 14.0642C8.74852 14.8769 9.85072 15.3334 11 15.3334ZM11 17.5001C9.27608 17.5001 7.62278 16.8153 6.4038 15.5963C5.18481 14.3773 4.49999 12.724 4.49999 11.0001C4.49999 9.27618 5.18481 7.62288 6.4038 6.40389C7.62278 5.1849 9.27608 4.50008 11 4.50008C12.7239 4.50008 14.3772 5.1849 15.5962 6.40389C16.8152 7.62288 17.5 9.27618 17.5 11.0001C17.5 12.724 16.8152 14.3773 15.5962 15.5963C14.3772 16.8153 12.7239 17.5001 11 17.5001ZM11 13.1667C10.4254 13.1667 9.87426 12.9385 9.46793 12.5321C9.0616 12.1258 8.83332 11.5747 8.83332 11.0001C8.83332 10.4254 9.0616 9.87435 9.46793 9.46802C9.87426 9.06169 10.4254 8.83342 11 8.83342C11.5746 8.83342 12.1257 9.06169 12.5321 9.46802C12.9384 9.87435 13.1667 10.4254 13.1667 11.0001C13.1667 11.5747 12.9384 12.1258 12.5321 12.5321C12.1257 12.9385 11.5746 13.1667 11 13.1667Z" fill="#B5B6B8"/>
</svg>
