<svg width="30" height="30" viewBox="0 0 30 30" fill="none" xmlns="http://www.w3.org/2000/svg">
<path fill-rule="evenodd" clip-rule="evenodd" d="M27.1875 3.75H16.875L16.2188 4.0313L15 5.23132L13.7812 4.0313L13.125 3.75H2.8125L1.875 4.6875V23.4375L2.8125 24.375H12.7312L14.3438 25.9687H15.6562L17.2688 24.375H27.1875L28.125 23.4375V4.6875L27.1875 3.75ZM14.0625 23.0999L13.725 22.7813L13.125 22.5H3.75V5.625H12.7312L14.1188 7.01248L14.0625 23.0999ZM26.25 22.5H16.875L16.2188 22.7813L15.9563 23.0251V6.93741L17.2688 5.625H26.25V22.5ZM11.25 9.375H5.625V11.25H11.25V9.375ZM11.25 16.875H5.625V18.75H11.25V16.875ZM5.625 13.125H11.25V15H5.625V13.125ZM24.375 9.375H18.75V11.25H24.375V9.375ZM18.75 13.125H24.375V15H18.75V13.125ZM18.75 16.875H24.375V18.75H18.75V16.875Z" fill="white"/>
</svg>
