<svg width="18" height="18" viewBox="0 0 18 18" fill="none" xmlns="http://www.w3.org/2000/svg">
<path d="M0.707771 9.24659C0.707771 4.53059 4.5306 0.707764 9.24659 0.707764C13.9626 0.707764 17.7854 4.53059 17.7854 9.24659C17.7854 13.9626 13.9626 17.7854 9.24659 17.7854H0.707771L3.20879 15.2844C2.41471 14.4924 1.78497 13.5512 1.35577 12.5151C0.926558 11.4789 0.706341 10.3681 0.707771 9.24659ZM4.83031 16.0776H9.24659C10.5976 16.0776 11.9184 15.677 13.0417 14.9264C14.1651 14.1758 15.0406 13.1089 15.5577 11.8607C16.0747 10.6125 16.21 9.23901 15.9464 7.91391C15.6828 6.58882 15.0322 5.37164 14.0769 4.4163C13.1215 3.46096 11.9044 2.81036 10.5793 2.54679C9.25417 2.28321 7.88067 2.41848 6.63246 2.93551C5.38425 3.45254 4.31738 4.32809 3.56678 5.45145C2.81617 6.57481 2.41553 7.89553 2.41553 9.24659C2.41553 11.0841 3.14219 12.803 4.41618 14.077L5.62357 15.2844L4.83031 16.0776ZM8.39271 4.12329H10.1005V14.3699H8.39271V4.12329ZM4.97718 6.68494H6.68495V11.8082H4.97718V6.68494ZM11.8082 6.68494H13.516V11.8082H11.8082V6.68494Z" fill="#C5C5C5"/>
</svg>
